<?xml version="1.0" encoding="iso-8859-1"?>
<!-- Generator: Adobe Illustrator 19.0.0, SVG Export Plug-In . SVG Version: 6.00 Build 0)  -->
<svg version="1.1" id="Layer_1" xmlns="http://www.w3.org/2000/svg" xmlns:xlink="http://www.w3.org/1999/xlink" x="0px" y="0px"
	 viewBox="0 0 512 512" style="enable-background:new 0 0 512 512;" xml:space="preserve">
<g>
	<g>
		<polygon points="196.182,168.583 196.182,156.537 40.558,156.537 40.558,183.575 0,183.575 0,295.781 40.558,295.781 
			40.558,322.817 74.438,322.817 74.438,322.819 168.926,322.819 168.926,322.817 196.182,322.817 196.182,310.771 196.184,310.772 
			196.184,168.582 		"/>
	</g>
</g>
<g>
	<g>
		<polygon points="175.549,353.237 81.062,353.237 104.857,462.522 199.345,462.522 		"/>
	</g>
</g>
<g>
	<g>
		<path d="M262.026,147.465c-12.979,4.952-24.89,9.033-35.425,12.373v159.679c10.534,3.339,22.446,7.421,35.425,12.372
			c44.271,16.89,110.027,47.504,174.45,97.988V49.478C372.053,99.963,306.297,130.576,262.026,147.465z"/>
	</g>
</g>
<g>
	<g>
		<path d="M474.955,168.704h-8.063v141.947h8.063c20.426,0,37.045-16.618,37.045-37.045v-67.858
			C512,185.322,495.381,168.704,474.955,168.704z"/>
	</g>
</g>
<g>
</g>
<g>
</g>
<g>
</g>
<g>
</g>
<g>
</g>
<g>
</g>
<g>
</g>
<g>
</g>
<g>
</g>
<g>
</g>
<g>
</g>
<g>
</g>
<g>
</g>
<g>
</g>
<g>
</g>
</svg>
