
<svg xmlns="http://www.w3.org/2000/svg" xmlns:xlink="http://www.w3.org/1999/xlink" version="1.1" id="Capa_1" x="0px" y="0px" width="10px" height="10px" viewBox="0 0 46 46" style="enable-background:new 0 0 46 46;" xml:space="preserve">
<g>
	<g id="Record">
		<g>
			<path d="M23,0C10.297,0,0,10.298,0,23s10.297,23,23,23c12.702,0,23-10.298,23-23S35.702,0,23,0z M23,42C12.507,42,4,33.493,4,23     S12.507,4,23,4s19,8.507,19,19S33.493,42,23,42z M23,16c-3.866,0-7,3.134-7,7s3.134,7,7,7s7-3.134,7-7S26.866,16,23,16z" fill="#636363"/>
		</g>
	</g>
</g>
<g>
</g>
<g>
</g>
<g>
</g>
<g>
</g>
<g>
</g>
<g>
</g>
<g>
</g>
<g>
</g>
<g>
</g>
<g>
</g>
<g>
</g>
<g>
</g>
<g>
</g>
<g>
</g>
<g>
</g>
</svg>
